HIERARCHY
ROOT Hips
{
	OFFSET 0.000000 71.427986 0.000000
	CHANNELS 6 Xposition Yposition Zposition Xrotation Yrotation Zrotation
	JOINT Pelvis
	{
		OFFSET 0.000000 0.000000 0.000000
		CHANNELS 3 Xrotation Yrotation Zrotation
		JOINT LeftUpLeg
		{
			OFFSET 6.797100 -2.508499 -1.318700
			CHANNELS 3 Xrotation Yrotation Zrotation
			JOINT LeftLeg
			{
				OFFSET 0.069008 -29.241863 0.690200
				CHANNELS 3 Xrotation Yrotation Zrotation
				JOINT LeftFoot
				{
					OFFSET -0.069008 -29.568123 -0.266800
					CHANNELS 3 Xrotation Yrotation Zrotation
					JOINT LeftToeBase
					{
						OFFSET 3.145500 -8.631000 16.059900
						CHANNELS 3 Xrotation Yrotation Zrotation
						End Site
						{
							OFFSET 0.000000 18.501587 0.000000
						}
					}
				}
			}
			JOINT Left_ShortSleeve
			{
				OFFSET 0.265923 -10.480953 1.153800
				CHANNELS 3 Xrotation Yrotation Zrotation
				End Site
				{
					OFFSET 1.725763 19.823879 0.000000
				}
			}
		}
		JOINT RightUpLeg
		{
			OFFSET -6.797100 -2.508499 -1.318700
			CHANNELS 3 Xrotation Yrotation Zrotation
			JOINT RightLeg
			{
				OFFSET -0.082453 -29.241932 0.688000
				CHANNELS 3 Xrotation Yrotation Zrotation
				JOINT RightFoot
				{
					OFFSET 0.082453 -29.568058 -0.264600
					CHANNELS 3 Xrotation Yrotation Zrotation
					JOINT RightToeBase
					{
						OFFSET -3.115300 -8.682800 16.113400
						CHANNELS 3 Xrotation Yrotation Zrotation
						End Site
						{
							OFFSET 0.000000 18.567114 0.000000
						}
					}
				}
			}
			JOINT Right_ShortSleeve
			{
				OFFSET -0.265923 -10.480953 1.153800
				CHANNELS 3 Xrotation Yrotation Zrotation
				End Site
				{
					OFFSET -1.725766 19.823910 0.000000
				}
			}
		}
	}
	JOINT Spine
	{
		OFFSET 0.000000 13.368103 0.470500
		CHANNELS 3 Xrotation Yrotation Zrotation
		JOINT Spine1
		{
			OFFSET 0.147000 13.837402 0.538800
			CHANNELS 3 Xrotation Yrotation Zrotation
			JOINT Spine2
			{
				OFFSET 0.168000 16.242897 -1.435500
				CHANNELS 3 Xrotation Yrotation Zrotation
				JOINT Neck
				{
					OFFSET 0.217200 18.631500 -1.679100
					CHANNELS 3 Xrotation Yrotation Zrotation
					JOINT Head
					{
						OFFSET 0.000000 6.599396 1.385900
						CHANNELS 3 Xrotation Yrotation Zrotation
						JOINT Hat
						{
							OFFSET -0.532200 27.220596 -10.096100
							CHANNELS 3 Xrotation Yrotation Zrotation
							End Site
							{
								OFFSET 0.000000 22.029861 0.000000
							}
						}
						JOINT HairD
						{
							OFFSET -10.777400 17.437393 -1.325900
							CHANNELS 3 Xrotation Yrotation Zrotation
							JOINT HairD1
							{
								OFFSET -3.290299 -11.051193 1.062200
								CHANNELS 3 Xrotation Yrotation Zrotation
								End Site
								{
									OFFSET 0.000000 11.579437 0.000000
								}
							}
						}
						JOINT HairB
						{
							OFFSET -10.777400 17.437393 1.467900
							CHANNELS 3 Xrotation Yrotation Zrotation
							JOINT HairB1
							{
								OFFSET -1.561200 -12.956299 3.590200
								CHANNELS 3 Xrotation Yrotation Zrotation
								End Site
								{
									OFFSET 0.000000 13.534866 0.000000
								}
							}
						}
						JOINT HairA
						{
							OFFSET 9.713100 17.437393 1.467900
							CHANNELS 3 Xrotation Yrotation Zrotation
							JOINT HairA1
							{
								OFFSET 1.561200 -12.956299 3.590200
								CHANNELS 3 Xrotation Yrotation Zrotation
								End Site
								{
									OFFSET 0.000000 13.534866 0.000000
								}
							}
						}
						JOINT HairC
						{
							OFFSET 9.713100 17.437393 -1.325900
							CHANNELS 3 Xrotation Yrotation Zrotation
							JOINT HairC1
							{
								OFFSET 3.290300 -11.051193 1.062200
								CHANNELS 3 Xrotation Yrotation Zrotation
								End Site
								{
									OFFSET 0.000000 11.579437 0.000000
								}
							}
						}
					}
				}
				JOINT LeftShoulder
				{
					OFFSET 5.101800 15.108002 -2.763700
					CHANNELS 3 Xrotation Yrotation Zrotation
					JOINT LeftArm
					{
						OFFSET 9.825497 2.506317 -1.597400
						CHANNELS 3 Xrotation Yrotation Zrotation
						JOINT LeftForeArm
						{
							OFFSET 21.966244 0.000000 0.000000
							CHANNELS 3 Xrotation Yrotation Zrotation
							JOINT LeftHand
							{
								OFFSET 33.879036 0.000000 0.000000
								CHANNELS 3 Xrotation Yrotation Zrotation
								JOINT LeftHandThumb1
								{
									OFFSET 6.715286 -2.359680 3.363841
									CHANNELS 3 Xrotation Yrotation Zrotation
									JOINT LeftHandThumb2
									{
										OFFSET 2.507072 -1.447464 1.447461
										CHANNELS 3 Xrotation Yrotation Zrotation
										JOINT LeftHandThumb3
										{
											OFFSET 2.898338 -1.673355 1.673357
											CHANNELS 3 Xrotation Yrotation Zrotation
											End Site
											{
												OFFSET -0.295959 3.727692 -0.131651
											}
										}
									}
								}
								JOINT LeftHandIndex1
								{
									OFFSET 14.190811 -0.254547 3.840278
									CHANNELS 3 Xrotation Yrotation Zrotation
									JOINT LeftHandIndex2
									{
										OFFSET 3.551727 0.000000 -0.000000
										CHANNELS 3 Xrotation Yrotation Zrotation
										JOINT LeftHandIndex3
										{
											OFFSET 2.894196 0.000000 0.000000
											CHANNELS 3 Xrotation Yrotation Zrotation
											End Site
											{
												OFFSET -1.000603 2.690872 0.366626
											}
										}
									}
								}
								JOINT LeftHandMiddle1
								{
									OFFSET 13.776489 0.000000 0.000000
									CHANNELS 3 Xrotation Yrotation Zrotation
									JOINT LeftHandMiddle2
									{
										OFFSET 3.438232 0.000000 0.000000
										CHANNELS 3 Xrotation Yrotation Zrotation
										JOINT LeftHandMiddle3
										{
											OFFSET 3.691551 0.000000 0.000000
											CHANNELS 3 Xrotation Yrotation Zrotation
											End Site
											{
												OFFSET -1.082298 3.499527 0.457670
											}
										}
									}
								}
								JOINT LeftHandRing1
								{
									OFFSET 13.966164 -0.268127 -3.067488
									CHANNELS 3 Xrotation Yrotation Zrotation
									JOINT LeftHandRing2
									{
										OFFSET 3.162567 0.000000 0.000000
										CHANNELS 3 Xrotation Yrotation Zrotation
										JOINT LeftHandRing3
										{
											OFFSET 3.324348 0.000000 0.000000
											CHANNELS 3 Xrotation Yrotation Zrotation
											End Site
											{
												OFFSET -0.861900 3.184998 0.405154
											}
										}
									}
								}
								JOINT LeftHandPinky1
								{
									OFFSET 13.131393 -0.168503 -5.746925
									CHANNELS 3 Xrotation Yrotation Zrotation
									JOINT LeftHandPinky2
									{
										OFFSET 2.849182 0.000000 0.000000
										CHANNELS 3 Xrotation Yrotation Zrotation
										JOINT LeftHandPinky3
										{
											OFFSET 2.805038 0.000000 0.000000
											CHANNELS 3 Xrotation Yrotation Zrotation
											End Site
											{
												OFFSET -0.882500 2.642609 0.325652
											}
										}
									}
								}
							}
							JOINT Left_Sleeve
							{
								OFFSET 6.592125 -0.646545 0.805568
								CHANNELS 3 Xrotation Yrotation Zrotation
								End Site
								{
									OFFSET -0.000179 20.275787 -0.000000
								}
							}
						}
					}
				}
				JOINT RightShoulder
				{
					OFFSET -5.731700 15.108002 -2.763700
					CHANNELS 3 Xrotation Yrotation Zrotation
					JOINT RightArm
					{
						OFFSET -9.825497 2.506317 -1.597400
						CHANNELS 3 Xrotation Yrotation Zrotation
						JOINT RightForeArm
						{
							OFFSET -21.966242 0.000000 0.000000
							CHANNELS 3 Xrotation Yrotation Zrotation
							JOINT RightHand
							{
								OFFSET -33.879032 0.000000 0.000000
								CHANNELS 3 Xrotation Yrotation Zrotation
								JOINT RightHandThumb1
								{
									OFFSET -6.715286 -2.359680 3.363841
									CHANNELS 3 Xrotation Yrotation Zrotation
									JOINT RightHandThumb2
									{
										OFFSET -2.507072 -1.447464 1.447461
										CHANNELS 3 Xrotation Yrotation Zrotation
										JOINT RightHandThumb3
										{
											OFFSET -2.898338 -1.673355 1.673357
											CHANNELS 3 Xrotation Yrotation Zrotation
											End Site
											{
												OFFSET 0.295959 3.727692 -0.131651
											}
										}
									}
								}
								JOINT RightHandIndex1
								{
									OFFSET -14.190811 -0.254547 3.840278
									CHANNELS 3 Xrotation Yrotation Zrotation
									JOINT RightHandIndex2
									{
										OFFSET -3.551727 0.000000 -0.000000
										CHANNELS 3 Xrotation Yrotation Zrotation
										JOINT RightHandIndex3
										{
											OFFSET -2.894196 0.000000 0.000000
											CHANNELS 3 Xrotation Yrotation Zrotation
											End Site
											{
												OFFSET 1.000603 2.690872 0.366626
											}
										}
									}
								}
								JOINT RightHandMiddle1
								{
									OFFSET -13.776489 0.000000 0.000000
									CHANNELS 3 Xrotation Yrotation Zrotation
									JOINT RightHandMiddle2
									{
										OFFSET -3.438232 0.000000 0.000000
										CHANNELS 3 Xrotation Yrotation Zrotation
										JOINT RightHandMiddle3
										{
											OFFSET -3.691551 0.000000 0.000000
											CHANNELS 3 Xrotation Yrotation Zrotation
											End Site
											{
												OFFSET 1.082298 3.499527 0.457670
											}
										}
									}
								}
								JOINT RightHandRing1
								{
									OFFSET -13.966164 -0.268127 -3.067488
									CHANNELS 3 Xrotation Yrotation Zrotation
									JOINT RightHandRing2
									{
										OFFSET -3.162567 0.000000 0.000000
										CHANNELS 3 Xrotation Yrotation Zrotation
										JOINT RightHandRing3
										{
											OFFSET -3.324348 0.000000 0.000000
											CHANNELS 3 Xrotation Yrotation Zrotation
											End Site
											{
												OFFSET 0.861900 3.184998 0.405154
											}
										}
									}
								}
								JOINT RightHandPinky1
								{
									OFFSET -13.131393 -0.168503 -5.746925
									CHANNELS 3 Xrotation Yrotation Zrotation
									JOINT RightHandPinky2
									{
										OFFSET -2.849182 0.000000 0.000000
										CHANNELS 3 Xrotation Yrotation Zrotation
										JOINT RightHandPinky3
										{
											OFFSET -2.805038 0.000000 0.000000
											CHANNELS 3 Xrotation Yrotation Zrotation
											End Site
											{
												OFFSET 0.882500 2.642609 0.325652
											}
										}
									}
								}
							}
							JOINT Right_Sleeve
							{
								OFFSET -6.592125 -0.646545 0.805568
								CHANNELS 3 Xrotation Yrotation Zrotation
								End Site
								{
									OFFSET 0.000179 20.275787 -0.000000
								}
							}
						}
					}
				}
				JOINT Bind_Right_JacketString
				{
					OFFSET -3.534800 11.969597 7.200700
					CHANNELS 3 Xrotation Yrotation Zrotation
					JOINT Bind_Right_JacketString1
					{
						OFFSET -0.319900 -6.102600 2.794100
						CHANNELS 3 Xrotation Yrotation Zrotation
						End Site
						{
							OFFSET 0.000000 6.719452 0.000000
						}
					}
				}
				JOINT Bind_Left_JacketString
				{
					OFFSET 2.904800 11.969597 7.200700
					CHANNELS 3 Xrotation Yrotation Zrotation
					JOINT Bind_Left_JacketString1
					{
						OFFSET 0.364800 -5.904503 3.186800
						CHANNELS 3 Xrotation Yrotation Zrotation
						End Site
						{
							OFFSET 0.000000 6.719513 0.000000
						}
					}
				}
				JOINT HairE
				{
					OFFSET 5.915200 17.612701 -11.592200
					CHANNELS 3 Xrotation Yrotation Zrotation
					JOINT HairE1
					{
						OFFSET 0.289200 -7.171898 -1.284500
						CHANNELS 3 Xrotation Yrotation Zrotation
						End Site
						{
							OFFSET 0.000000 7.291756 0.000000
						}
					}
				}
				JOINT HairF
				{
					OFFSET -0.864800 17.612701 -11.592200
					CHANNELS 3 Xrotation Yrotation Zrotation
					JOINT HairF1
					{
						OFFSET 0.000000 -14.087097 -2.127501
						CHANNELS 3 Xrotation Yrotation Zrotation
						End Site
						{
							OFFSET 0.000000 14.246841 0.000000
						}
					}
				}
				JOINT HairG
				{
					OFFSET -8.087700 17.612701 -11.592200
					CHANNELS 3 Xrotation Yrotation Zrotation
					JOINT HairG1
					{
						OFFSET -0.293600 -6.081398 -0.910100
						CHANNELS 3 Xrotation Yrotation Zrotation
						End Site
						{
							OFFSET 0.000000 6.156120 0.000000
						}
					}
				}
			}
		}
	}
	JOINT Pouch
	{
		OFFSET 0.000000 4.394501 10.847300
		CHANNELS 3 Xrotation Yrotation Zrotation
		End Site
		{
			OFFSET 0.000000 21.880577 0.000000
		}
	}
	JOINT Bag
	{
		OFFSET -13.229000 4.813004 -0.593300
		CHANNELS 3 Xrotation Yrotation Zrotation
		End Site
		{
			OFFSET 0.000000 21.880577 0.000000
		}
	}
	JOINT OccupyGuyFacialAnim_Joint
	{
		OFFSET 1.000000 -70.206398 -1.655000
		CHANNELS 3 Xrotation Yrotation Zrotation
		End Site
		{
			OFFSET 0.000000 21.880577 0.000000
		}
	}
}
MOTION
Frames: 4
Frame Time: 0.016667
-0.184154 70.915337 1.292428 -3.753503 -5.225520 -3.479874 -0.000000 0.000000 0.000000 -8.971017 15.122041 9.858294 13.232637 1.945532 4.203628 -1.488223 0.717115 -7.483836 0.000000 -0.000001 0.000000 0.000001 -0.000001 -0.000000 4.000613 -10.255221 4.217872 5.868036 -9.798177 -3.276777 -5.584053 -1.684036 3.131965 0.000000 -0.000000 -0.000000 -0.000000 -0.000000 -0.000000 3.303451 1.540971 2.456337 1.151563 0.341255 1.563088 1.124399 0.369601 1.558065 5.626309 -0.076129 0.454683 -7.563350 1.377077 -0.080249 0.000000 -0.000000 0.000000 0.000000 -0.000000 0.000000 0.000000 -0.000000 -0.000000 0.000000 -0.000000 0.000000 0.000000 -0.000000 0.000000 0.000000 -0.000000 0.000000 0.000000 -0.000000 0.000000 0.000000 -0.000000 0.000000 0.000000 -0.000000 0.000000 1.046818 -17.441252 -12.316051 3.916271 -19.989249 -69.765226 -0.000009 -1.459365 0.000011 -33.230407 -1.364825 -6.186628 -0.663006 2.160314 4.832501 11.845369 25.425965 17.060312 0.000002 0.000002 -0.000002 0.019863 -0.969579 -7.593539 0.267779 1.752582 -17.372559 0.000001 0.000000 -0.000002 -0.076309 2.665784 -15.696849 0.268780 1.755800 -17.405514 0.000001 -0.000000 0.000002 0.136909 3.641762 -21.133521 0.386296 2.093952 -20.903116 -0.000001 -0.000001 -0.000003 0.917884 5.560956 -27.127203 0.268797 1.755855 -17.405969 -0.000001 -0.000000 0.000003 0.000001 -0.000000 0.000000 1.209145 15.345166 14.705935 13.158871 27.555118 58.785136 -0.000003 6.693743 0.000006 -20.179090 -0.514096 6.782815 -1.665254 -0.174476 -4.219038 12.710964 -29.825329 -16.130931 0.000001 0.000000 0.000003 0.037230 1.273348 6.824650 0.213715 -1.396022 17.407029 0.000000 0.000003 0.000001 -0.136228 -2.205107 14.998899 0.214455 -1.398349 17.436880 0.000001 0.000001 -0.000002 0.030604 -3.075748 20.451041 0.308447 -1.668290 20.948518 0.000002 -0.000001 -0.000001 0.756727 -4.881350 26.474334 0.214459 -1.398378 17.437261 -0.000001 -0.000001 0.000002 0.000003 -0.000000 0.000000 0.000000 -0.000000 -0.000000 0.000000 -0.000000 -0.000000 0.000000 -0.000000 -0.000000 0.000000 -0.000000 -0.000000 0.000000 -0.000000 -0.000000 0.000000 -0.000000 -0.000000 0.000000 -0.000000 -0.000000 0.000000 -0.000000 -0.000000 0.000000 -0.000000 -0.000000 0.000000 -0.000000 -0.000000 -0.000000 0.000000 0.000000 -0.000000 0.000000 0.000000 -0.000000 0.000000 0.000000 
-0.183389 70.913399 1.284512 -3.775024 -5.371438 -3.515733 0.000000 0.000000 0.000000 -8.995187 15.128169 9.920460 13.341221 2.076956 4.176144 -1.564548 0.716620 -7.474361 0.000000 0.000000 -0.000000 -0.000001 0.000001 -0.000000 4.001495 -10.255849 4.258535 5.874439 -9.439747 -3.323960 -5.557979 -1.896322 3.121008 0.000000 -0.000000 -0.000000 -0.000000 0.000001 -0.000000 3.303404 1.540923 2.458253 1.151563 0.341256 1.563088 1.124400 0.369601 1.558066 5.641320 -0.076129 0.444039 -7.562832 1.382773 -0.108851 0.000000 -0.000000 0.000000 0.000000 -0.000000 0.000000 0.000000 -0.000000 0.000000 0.000000 -0.000000 -0.000000 0.000000 0.000000 -0.000000 0.000000 -0.000000 -0.000000 0.000000 0.000000 -0.000000 0.000000 -0.000000 0.000000 0.000000 -0.000000 0.000000 1.048148 -17.435434 -12.315652 3.889509 -20.129821 -69.771011 0.000001 -1.500348 -0.000004 -33.176469 -1.403255 -6.179776 -0.731343 2.210469 4.906270 11.849539 25.426131 17.046976 0.000001 -0.000000 -0.000001 0.037645 -0.954838 -7.569161 0.267774 1.752583 -17.372581 0.000003 0.000001 0.000002 -0.085754 2.628829 -15.661561 0.268445 1.754724 -17.394426 -0.000000 0.000001 0.000001 0.132376 3.630365 -21.141418 0.386298 2.093950 -20.903123 -0.000003 -0.000000 0.000000 0.910053 5.545741 -27.128188 0.268799 1.755851 -17.405979 0.000000 -0.000001 0.000001 0.000001 -0.000000 -0.000000 1.208450 15.358333 14.695767 13.135325 27.547104 58.785123 -0.000012 6.665716 -0.000005 -20.179205 -0.509189 6.769465 -1.578891 0.146357 -3.611996 12.359137 -29.465945 -16.752484 -0.000002 0.000002 0.000002 0.071398 1.294370 6.594607 0.207548 -1.376188 17.151867 0.000000 -0.000002 -0.000000 -0.135841 -2.183627 14.745366 0.208859 -1.380421 17.206148 0.000000 -0.000000 0.000001 0.029731 -3.067564 20.320438 0.308033 -1.667212 20.934475 0.000003 -0.000002 0.000000 0.766596 -4.905941 26.265069 0.214457 -1.398374 17.437251 0.000000 -0.000002 0.000004 -0.000001 -0.000001 0.000001 -0.000000 -0.000000 -0.000000 -0.000000 -0.000000 -0.000000 -0.000000 -0.000000 0.000000 -0.000000 -0.000000 0.000000 -0.000000 -0.000000 -0.000000 -0.000000 -0.000000 -0.000000 -0.000000 -0.000000 0.000000 -0.000000 -0.000000 0.000000 -0.000000 -0.000000 -0.000000 -0.000000 -0.000000 -0.000000 0.000000 0.000000 0.000000 0.000000 0.000000 0.000000 0.000000 0.000000 0.000000 
-0.183212 70.910561 1.277958 -3.798150 -5.522641 -3.550694 -0.000000 -0.000000 -0.000000 -9.019624 15.134900 9.983559 13.458845 2.213208 4.147744 -1.649726 0.716284 -7.466870 0.000000 0.000001 -0.000000 -0.000001 0.000000 -0.000000 3.987809 -10.250708 4.294827 5.912434 -9.097361 -3.369598 -5.548170 -2.098579 3.112844 -0.000000 -0.000000 0.000000 -0.000000 -0.000001 -0.000000 3.303374 1.540856 2.459309 1.151564 0.341255 1.563088 1.124399 0.369603 1.558065 5.658003 -0.073427 0.433889 -7.562017 1.396771 -0.134893 -0.000000 0.000000 -0.000000 -0.000000 0.000000 -0.000000 -0.000000 0.000000 -0.000000 -0.000000 0.000000 -0.000000 -0.000000 0.000000 -0.000000 -0.000000 0.000000 -0.000000 -0.000000 0.000000 -0.000000 -0.000000 0.000000 -0.000000 -0.000000 0.000000 -0.000000 1.049204 -17.430822 -12.315329 3.861915 -20.202547 -69.781331 -0.000003 -1.523121 -0.000000 -33.149534 -1.438206 -6.183287 -0.802503 2.237496 4.968534 11.855482 25.426378 17.027952 0.000003 -0.000000 -0.000003 0.044156 -0.951272 -7.556535 0.267774 1.752579 -17.372559 0.000001 -0.000000 -0.000000 -0.094896 2.594731 -15.647830 0.268337 1.754382 -17.391014 0.000002 -0.000000 -0.000001 0.130833 3.627151 -21.159277 0.386304 2.093951 -20.903101 0.000001 -0.000001 0.000001 0.906108 5.538027 -27.130990 0.268797 1.755850 -17.405982 -0.000001 0.000000 0.000001 0.000002 0.000000 -0.000001 1.206565 15.367489 14.694092 13.125069 27.554843 58.770745 -0.000003 6.622063 0.000009 -20.182832 -0.523826 6.785147 -1.413002 0.635814 -2.930313 11.971231 -29.040189 -17.421513 -0.000002 -0.000004 -0.000002 0.104997 1.310485 6.427157 0.200378 -1.352755 16.850811 -0.000001 -0.000001 0.000000 -0.135440 -2.165788 14.534663 0.201555 -1.356609 16.900297 -0.000001 -0.000001 -0.000003 0.033618 -3.072498 20.193220 0.307456 -1.665706 20.914594 0.000001 -0.000001 0.000001 0.776732 -4.930059 26.118691 0.214820 -1.399547 17.452347 -0.000001 -0.000001 0.000000 -0.000001 0.000000 -0.000000 0.000000 0.000000 -0.000000 0.000000 0.000000 -0.000000 0.000000 0.000000 -0.000000 0.000000 0.000000 -0.000000 0.000000 0.000000 -0.000000 0.000000 0.000000 0.000000 0.000000 0.000000 -0.000000 0.000000 0.000000 -0.000000 0.000000 0.000000 -0.000000 0.000000 0.000000 0.000000 -0.000000 -0.000000 -0.000000 -0.000000 -0.000000 -0.000000 -0.000000 -0.000000 -0.000000 
-0.183613 70.907143 1.272838 -3.822631 -5.679018 -3.586240 0.000000 0.000000 -0.000000 -9.043957 15.142984 10.049071 13.583124 2.352945 4.118412 -1.741245 0.715968 -7.461656 -0.000000 -0.000000 -0.000000 -0.000000 0.000001 -0.000000 3.969168 -10.245705 4.329075 5.965607 -8.747403 -3.413151 -5.546711 -2.301932 3.104115 0.000000 0.000000 -0.000000 0.000000 -0.000003 -0.000000 3.303343 1.540787 2.460442 1.151564 0.341256 1.563088 1.124400 0.369601 1.558065 5.675498 -0.070797 0.424323 -7.560893 1.416646 -0.159048 0.000000 -0.000000 0.000000 0.000000 -0.000000 0.000000 0.000000 -0.000000 0.000000 0.000000 -0.000000 0.000000 -0.000000 0.000000 0.000000 0.000000 -0.000000 0.000000 -0.000000 0.000000 0.000000 0.000000 -0.000000 0.000000 0.000000 -0.000000 0.000000 1.050083 -17.426982 -12.315066 3.834560 -20.228961 -69.793933 -0.000002 -1.533920 0.000000 -33.143281 -1.469032 -6.193458 -0.859825 2.255361 5.016251 11.860755 25.426590 17.011040 0.000002 0.000001 -0.000003 0.045888 -0.951698 -7.554065 0.267771 1.752576 -17.372562 0.000002 0.000001 -0.000000 -0.102330 2.568138 -15.649411 0.268289 1.754225 -17.389392 0.000002 0.000001 -0.000001 0.131295 3.629431 -21.184122 0.386301 2.093953 -20.903102 -0.000000 -0.000001 -0.000004 0.904506 5.534720 -27.140470 0.268795 1.755849 -17.405986 0.000000 0.000000 -0.000001 0.000002 -0.000000 -0.000000 1.203738 15.373912 14.698714 13.129140 27.577794 58.738083 0.000002 6.568085 -0.000010 -20.190172 -0.555366 6.822985 -1.186840 1.249703 -2.178573 11.554277 -28.561293 -18.150369 -0.000000 0.000000 0.000001 0.135012 1.320353 6.337454 0.192945 -1.327963 16.533035 -0.000002 0.000001 0.000002 -0.135120 -2.153230 14.386318 0.193471 -1.329765 16.555965 0.000000 0.000000 -0.000001 0.040894 -3.088782 20.111051 0.307199 -1.665020 20.905566 0.000002 -0.000002 0.000000 0.784883 -4.944860 26.073424 0.215501 -1.401713 17.480076 -0.000003 0.000001 0.000001 0.000002 -0.000000 0.000001 -0.000000 -0.000000 0.000000 -0.000000 -0.000000 0.000000 -0.000000 -0.000000 0.000000 -0.000000 -0.000000 0.000000 -0.000000 -0.000000 0.000000 -0.000000 -0.000000 0.000000 -0.000000 -0.000000 0.000000 -0.000000 -0.000000 0.000000 -0.000000 -0.000000 0.000000 -0.000000 -0.000000 0.000000 0.000000 0.000000 -0.000000 0.000000 0.000000 -0.000000 0.000000 0.000000 -0.000000 
